<svg width="1024" height="1024" viewBox="0 0 1024 1024" fill="none" xmlns="http://www.w3.org/2000/svg">
<defs>
  <radialGradient id="glow" cx="0" cy="0" r="1" gradientUnits="userSpaceOnUse" gradientTransform="translate(512 446) rotate(90) scale(230 260)">
    <stop offset="0" stop-color="#6BBF8A" stop-opacity="0.18"/>
    <stop offset="1" stop-color="#6BBF8A" stop-opacity="0"/>
  </radialGradient>
  <linearGradient id="jade" x1="330" y1="268" x2="705" y2="688" gradientUnits="userSpaceOnUse">
    <stop offset="0" stop-color="#D7FAE9"/>
    <stop offset="0.24" stop-color="#97DAB7"/>
    <stop offset="0.52" stop-color="#68B988"/>
    <stop offset="0.80" stop-color="#336A52"/>
    <stop offset="1" stop-color="#17372C"/>
  </linearGradient>
  <linearGradient id="facet" x1="458" y1="304" x2="697" y2="548" gradientUnits="userSpaceOnUse">
    <stop offset="0" stop-color="#F4FFF9" stop-opacity="0.76"/>
    <stop offset="0.45" stop-color="#CAF2DE" stop-opacity="0.24"/>
    <stop offset="1" stop-color="#6BBF8A" stop-opacity="0.05"/>
  </linearGradient>
  <linearGradient id="cutFill" x1="452" y1="350" x2="624" y2="594" gradientUnits="userSpaceOnUse">
    <stop offset="0" stop-color="#0E1C17" stop-opacity="0.42"/>
    <stop offset="0.55" stop-color="#133025" stop-opacity="0.28"/>
    <stop offset="1" stop-color="#0B1713" stop-opacity="0.22"/>
  </linearGradient>
  <linearGradient id="cutStroke" x1="455" y1="345" x2="608" y2="560" gradientUnits="userSpaceOnUse">
    <stop offset="0" stop-color="#F7FFF9" stop-opacity="0.50"/>
    <stop offset="0.5" stop-color="#D9FAE9" stop-opacity="0.28"/>
    <stop offset="1" stop-color="#A8E6CF" stop-opacity="0.16"/>
  </linearGradient>
  <filter id="shadow" x="-35%" y="-35%" width="170%" height="170%">
    <feDropShadow dx="0" dy="18" stdDeviation="26" flood-color="#000000" flood-opacity="0.24"/>
  </filter>
  <filter id="blur" x="-50%" y="-50%" width="200%" height="200%">
    <feGaussianBlur stdDeviation="22"/>
  </filter>
</defs>

<ellipse cx="512" cy="446" rx="190" ry="136" fill="url(#glow)" filter="url(#blur)"/>

<g filter="url(#shadow)">
  <path d="M345 354
           C375 291 445 255 519 258
           C579 261 631 282 668 326
           C718 386 733 460 710 527
           C685 599 626 648 550 666
           C477 684 395 662 342 610
           C290 560 272 488 292 421
           C301 389 319 367 345 354Z"
        fill="url(#jade)"/>

  <path d="M381 382
           C414 332 479 308 544 317
           C603 325 649 354 673 404
           C694 450 691 501 669 544
           C640 598 593 626 539 635
           C480 645 420 627 380 588
           C341 551 326 497 337 445
           C344 417 357 396 381 382Z"
        fill="#E8FFF5" fill-opacity="0.08"/>

  <path d="M480 305L662 357L697 497L570 618L430 593L396 452L480 305Z"
        fill="url(#facet)"
        stroke="#F1FFF8" stroke-opacity="0.22" stroke-width="2"/>

  <g stroke="#F2FFF9" stroke-opacity="0.16" stroke-width="2">
    <path d="M480 305L430 593"/>
    <path d="M480 305L570 618"/>
    <path d="M662 357L430 593"/>
    <path d="M697 497L480 305"/>
    <path d="M396 452L662 357"/>
    <path d="M430 593L697 497"/>
  </g>

  <!-- stronger carving mark for transparent use -->
  <path d="M529 332
           C564 340 591 358 609 384
           C624 405 628 430 621 454
           C614 478 599 498 576 517
           C553 535 526 550 497 565
           C475 577 462 590 459 602
           C457 613 462 626 476 639
           C444 633 423 619 414 597
           C405 573 413 549 438 526
           C459 507 489 489 519 469
           C548 449 565 430 570 412
           C574 396 569 378 555 361
           C548 353 539 343 529 332Z"
        fill="url(#cutFill)"/>

  <path d="M540 347
           C525 381 494 412 447 441
           C482 439 518 448 555 468
           C523 491 497 517 478 546
           C468 562 462 577 462 593"
        stroke="url(#cutStroke)" stroke-width="11" stroke-linecap="round" stroke-linejoin="round"/>

  <path d="M553 468C578 462 600 470 618 486"
        stroke="#D8FAE9" stroke-opacity="0.34" stroke-width="7" stroke-linecap="round"/>

  <path d="M540 347
           C525 381 494 412 447 441
           C482 439 518 448 555 468
           C523 491 497 517 478 546
           C468 562 462 577 462 593"
        stroke="#0E1C17" stroke-opacity="0.20" stroke-width="15" stroke-linecap="round" stroke-linejoin="round"/>
</g>
</svg>